<svg xmlns="http://www.w3.org/2000/svg" viewBox="0 0 1440 320"><path fill="#ffffff" fill-opacity="1" d="M0,128L26.7,117.3C53.3,107,107,85,160,96C213.3,107,267,149,320,160C373.3,171,427,149,480,117.3C533.3,85,587,43,640,58.7C693.3,75,747,149,800,176C853.3,203,907,181,960,160C1013.3,139,1067,117,1120,133.3C1173.3,149,1227,203,1280,224C1333.3,245,1387,235,1413,229.3L1440,224L1440,320L1413.3,320C1386.7,320,1333,320,1280,320C1226.7,320,1173,320,1120,320C1066.7,320,1013,320,960,320C906.7,320,853,320,800,320C746.7,320,693,320,640,320C586.7,320,533,320,480,320C426.7,320,373,320,320,320C266.7,320,213,320,160,320C106.7,320,53,320,27,320L0,320Z"></path></svg>